<svg width="13" height="23" viewBox="0 0 13 23" fill="none" xmlns="http://www.w3.org/2000/svg">
  <path d="M11.6133 13.125H8.39062V22.75H4.09375V13.125H0.613281V9.12891H4.09375V6.12109C4.09375 4.97526 4.30859 4.0013 4.73828 3.19922C5.16797 2.39714 5.76953 1.79557 6.54297 1.39453C7.34505 0.964844 8.26172 0.75 9.29297 0.75C9.7513 0.75 10.2383 0.778646 10.7539 0.835938C11.2695 0.864583 11.6706 0.907552 11.957 0.964844L12.3867 1.00781V4.40234H10.668C9.86589 4.40234 9.27865 4.61719 8.90625 5.04688C8.5625 5.44792 8.39062 5.94922 8.39062 6.55078V9.12891H12.2148L11.6133 13.125Z" fill="white"/>
  <path d="M11.6133 13.125H8.39062V22.75H4.09375V13.125H0.613281V9.12891H4.09375V6.12109C4.09375 4.97526 4.30859 4.0013 4.73828 3.19922C5.16797 2.39714 5.76953 1.79557 6.54297 1.39453C7.34505 0.964844 8.26172 0.75 9.29297 0.75C9.7513 0.75 10.2383 0.778646 10.7539 0.835938C11.2695 0.864583 11.6706 0.907552 11.957 0.964844L12.3867 1.00781V4.40234H10.668C9.86589 4.40234 9.27865 4.61719 8.90625 5.04688C8.5625 5.44792 8.39062 5.94922 8.39062 6.55078V9.12891H12.2148L11.6133 13.125Z" fill="white"/>
</svg>
