<svg viewBox="0 0 108 108" height="108" width="108">
  <circle r="54" cy="53.631519" cx="54" />
  <path d="m 54,26.631518 c -14.9115,0 -27,12.0885 -27,27 0,14.9115 12.0885,27.000002 27,27.000002 14.9115,0 27,-12.088502 27,-27.000002 -0.0167,-14.9045 -12.0955,-26.983301 -27,-27 z m 23.3512,36.4588 -7.6785,1.3249 c 0.8789,-3.2233 1.3535,-6.5434 1.4128,-9.8837 h 8.0921 c -0.1015,2.9382 -0.7198,5.8355 -1.8264,8.5588 z m -48.52879,-8.5588 h 8.09209 c 0.05933,3.3403 0.5339,6.6604 1.4128,9.8837 l -7.67852,-1.3249 c -1.10654,-2.7233 -1.72485,-5.6206 -1.82637,-8.5588 z m 1.82637,-10.3588 7.67852,-1.3249 c -0.8789,3.2233 -1.35347,6.5434 -1.4128,9.8837 h -8.09209 c 0.10152,-2.9382 0.71983,-5.8355 1.82637,-8.5588 z M 54.9,41.082018 c 3.2339,0.0413 6.46,0.3358 9.6482,0.8811 l 3.1768,0.548 c 0.976,3.3214 1.5012,6.7588 1.5614,10.2204 H 54.9 Z m 9.9549,-0.8929 c -3.2893,-0.5621 -6.6181,-0.8658 -9.9549,-0.9071 v -10.79996 c 5.1596,0.4957 9.6416,5.21982 12.1816,12.09506 z M 53.1,39.282018 c -3.3368,0.0413 -6.6647,0.345 -9.9541,0.9071 l -2.2275,0.3854 c 2.54,-6.87703 7.022,-11.60291 12.1816,-12.09642 z m -9.6473,2.6811 c 3.1878,-0.5453 6.4134,-0.8398 9.6473,-0.8811 v 11.6495 H 38.7136 c 0.0602,-3.4616 0.5854,-6.899 1.5614,-10.2204 z m -4.7391,12.5684 H 53.1 v 11.6495 c -3.2339,-0.0413 -6.46,-0.3358 -9.6482,-0.8811 l -3.1768,-0.548 c -0.976,-3.3214 -1.5012,-6.7588 -1.5614,-10.2204 z m 4.4315,12.5424 c 3.2893,0.563 6.6177,0.868 9.9549,0.9119 V 78.78582 C 47.9404,78.289718 43.4584,73.565518 40.9184,66.690318 Z m 11.7549,0.9119 c 3.3368,-0.0439 6.6647,-0.3489 9.9541,-0.9119 l 2.2275,-0.3854 c -2.54,6.877 -7.022,11.6029 -12.1816,12.096402 z m 9.6473,-2.6859 c -3.1878,0.5453 -6.4134,0.8398 -9.6473,0.8811 v -11.6495 h 14.3864 c -0.0602,3.4616 -0.5854,6.899 -1.5614,10.2204 z m 6.5382,-12.5684 c -0.0593,-3.3403 -0.5339,-6.6604 -1.4128,-9.8837 l 7.6785,1.3249 c 1.1066,2.7233 1.7249,5.6206 1.8264,8.5588 z m 5.3552,-10.5425 -7.3604,-1.27 c -1.3232,-4.31675 -3.7987,-8.19097 -7.1605,-11.20518 6.2864,2.09795 11.4996,6.57642 14.5209,12.47518 z M 46.0802,29.713838 c -3.3618,3.01421 -5.8373,6.88843 -7.1605,11.20518 l -7.36037,1.27 c 3.02124,-5.89876 8.23447,-10.37723 14.52087,-12.47518 z m -14.52087,35.36018 7.36037,1.27 c 1.3232,4.3167 3.7987,8.191 7.1605,11.2052 -6.2864,-2.098 -11.49963,-6.5764 -14.52087,-12.4752 z m 30.36047,12.4752 c 3.3618,-3.0142 5.8373,-6.8885 7.1605,-11.2052 l 7.3604,-1.27 c -3.0213,5.8988 -8.2345,10.3772 -14.5209,12.4752 z" />
</svg>
