<svg width="12" height="12" viewbox="0 0 12 12" fill="none" xmlns="http://www.w3.org/2000/svg">
  <path d="M11.731 9.48352L9.87775 7.6301C9.50862 7.26246 8.89734 7.27363 8.51536 7.65575L7.58171 8.5892C7.52272 8.55669 7.46166 8.52273 7.39747 8.48671C6.80788 8.16002 6.00092 7.71226 5.15176 6.86248C4.30009 6.01091 3.85191 5.20271 3.52423 4.61273C3.48965 4.55023 3.45652 4.48997 3.4238 4.43274L4.05042 3.80705L4.35849 3.4986C4.74106 3.11593 4.75161 2.50482 4.38335 2.13611L2.53014 0.282485C2.16188 -0.0857092 1.55032 -0.0745393 1.16775 0.308135L0.645455 0.833432L0.659727 0.847602C0.484594 1.07107 0.338247 1.32881 0.22934 1.60674C0.128949 1.87131 0.0664455 2.12377 0.0378656 2.37675C-0.206839 4.4054 0.720197 6.25944 3.23605 8.77533C6.71373 12.2528 9.51627 11.9901 9.63718 11.9772C9.9005 11.9458 10.1529 11.8829 10.4093 11.7833C10.6848 11.6756 10.9424 11.5295 11.1657 11.3547L11.1771 11.3649L11.7063 10.8467C12.088 10.4641 12.099 9.85282 11.731 9.48352Z" fill="#FF5151"/>
</svg>
