<svg width="45" height="45" viewBox="0 0 45 45" fill="none" xmlns="http://www.w3.org/2000/svg">
  <rect width="45" height="45" fill="#E5E5E5"/>
  <rect x="-396" y="-4638" width="1920" height="4969" fill="white"/>
  <mask id="path-2-outside-1" maskUnits="userSpaceOnUse" x="6.10352e-05" y="0.00390625" width="45" height="45" fill="black">
    <rect fill="white" x="6.10352e-05" y="0.00390625" width="45" height="45"/>
    <path d="M42.8717 34.1746L34.1684 28.3704C33.0639 27.6398 31.5834 27.8802 30.7668 28.9229L28.2316 32.1825C27.9058 32.6121 27.3136 32.7367 26.8422 32.4749L26.36 32.209C24.7613 31.3377 22.7722 30.2528 18.7645 26.2437C14.7567 22.2345 13.6697 20.2439 12.7984 18.6482L12.5339 18.1659C12.2685 17.6947 12.3907 17.0999 12.8205 16.7715L16.078 14.237C17.1202 13.4204 17.361 11.9403 16.6312 10.8355L10.827 2.13216C10.0791 1.0071 8.57851 0.669367 7.42062 1.36541L3.78119 3.55162C2.63766 4.2239 1.79869 5.31268 1.44022 6.58981C0.129665 11.365 1.11558 19.6061 13.2556 31.7475C22.9127 41.4039 30.102 44.0007 35.0434 44.0007C36.1806 44.0056 37.3134 43.8576 38.4112 43.5608C39.6886 43.2027 40.7776 42.3637 41.4494 41.2198L43.6378 37.5826C44.3349 36.4244 43.9973 34.9229 42.8717 34.1746ZM42.4031 36.8473L40.2197 40.4867C39.7373 41.3124 38.9541 41.9194 38.0342 42.1807C33.6259 43.391 25.9243 42.3885 14.2695 30.7337C2.61456 19.0788 1.61219 11.3779 2.82248 6.96894C3.08413 6.04794 3.69192 5.26372 4.51854 4.78055L8.15797 2.59719C8.66038 2.2949 9.31167 2.44143 9.63622 2.92964L12.7891 7.66322L15.4354 11.6322C15.7523 12.1115 15.6482 12.7538 15.1961 13.1084L11.9379 15.6428C10.9463 16.401 10.6632 17.7728 11.2737 18.8616L11.5324 19.3317C12.4482 21.0113 13.5868 23.1008 17.7435 27.2569C21.9003 31.4129 23.9891 32.5516 25.668 33.4673L26.1387 33.7267C27.2274 34.3371 28.5994 34.054 29.3575 33.0625L31.892 29.8043C32.2467 29.3524 32.8887 29.2484 33.3681 29.5649L42.0707 35.3691C42.5593 35.6934 42.7058 36.345 42.4031 36.8473Z"/>
  </mask>
  <path d="M42.8717 34.1746L34.1684 28.3704C33.0639 27.6398 31.5834 27.8802 30.7668 28.9229L28.2316 32.1825C27.9058 32.6121 27.3136 32.7367 26.8422 32.4749L26.36 32.209C24.7613 31.3377 22.7722 30.2528 18.7645 26.2437C14.7567 22.2345 13.6697 20.2439 12.7984 18.6482L12.5339 18.1659C12.2685 17.6947 12.3907 17.0999 12.8205 16.7715L16.078 14.237C17.1202 13.4204 17.361 11.9403 16.6312 10.8355L10.827 2.13216C10.0791 1.0071 8.57851 0.669367 7.42062 1.36541L3.78119 3.55162C2.63766 4.2239 1.79869 5.31268 1.44022 6.58981C0.129665 11.365 1.11558 19.6061 13.2556 31.7475C22.9127 41.4039 30.102 44.0007 35.0434 44.0007C36.1806 44.0056 37.3134 43.8576 38.4112 43.5608C39.6886 43.2027 40.7776 42.3637 41.4494 41.2198L43.6378 37.5826C44.3349 36.4244 43.9973 34.9229 42.8717 34.1746ZM42.4031 36.8473L40.2197 40.4867C39.7373 41.3124 38.9541 41.9194 38.0342 42.1807C33.6259 43.391 25.9243 42.3885 14.2695 30.7337C2.61456 19.0788 1.61219 11.3779 2.82248 6.96894C3.08413 6.04794 3.69192 5.26372 4.51854 4.78055L8.15797 2.59719C8.66038 2.2949 9.31167 2.44143 9.63622 2.92964L12.7891 7.66322L15.4354 11.6322C15.7523 12.1115 15.6482 12.7538 15.1961 13.1084L11.9379 15.6428C10.9463 16.401 10.6632 17.7728 11.2737 18.8616L11.5324 19.3317C12.4482 21.0113 13.5868 23.1008 17.7435 27.2569C21.9003 31.4129 23.9891 32.5516 25.668 33.4673L26.1387 33.7267C27.2274 34.3371 28.5994 34.054 29.3575 33.0625L31.892 29.8043C32.2467 29.3524 32.8887 29.2484 33.3681 29.5649L42.0707 35.3691C42.5593 35.6934 42.7058 36.345 42.4031 36.8473Z" fill="#0095DA"/>
  <path d="M42.8717 34.1746L34.1684 28.3704C33.0639 27.6398 31.5834 27.8802 30.7668 28.9229L28.2316 32.1825C27.9058 32.6121 27.3136 32.7367 26.8422 32.4749L26.36 32.209C24.7613 31.3377 22.7722 30.2528 18.7645 26.2437C14.7567 22.2345 13.6697 20.2439 12.7984 18.6482L12.5339 18.1659C12.2685 17.6947 12.3907 17.0999 12.8205 16.7715L16.078 14.237C17.1202 13.4204 17.361 11.9403 16.6312 10.8355L10.827 2.13216C10.0791 1.0071 8.57851 0.669367 7.42062 1.36541L3.78119 3.55162C2.63766 4.2239 1.79869 5.31268 1.44022 6.58981C0.129665 11.365 1.11558 19.6061 13.2556 31.7475C22.9127 41.4039 30.102 44.0007 35.0434 44.0007C36.1806 44.0056 37.3134 43.8576 38.4112 43.5608C39.6886 43.2027 40.7776 42.3637 41.4494 41.2198L43.6378 37.5826C44.3349 36.4244 43.9973 34.9229 42.8717 34.1746ZM42.4031 36.8473L40.2197 40.4867C39.7373 41.3124 38.9541 41.9194 38.0342 42.1807C33.6259 43.391 25.9243 42.3885 14.2695 30.7337C2.61456 19.0788 1.61219 11.3779 2.82248 6.96894C3.08413 6.04794 3.69192 5.26372 4.51854 4.78055L8.15797 2.59719C8.66038 2.2949 9.31167 2.44143 9.63622 2.92964L12.7891 7.66322L15.4354 11.6322C15.7523 12.1115 15.6482 12.7538 15.1961 13.1084L11.9379 15.6428C10.9463 16.401 10.6632 17.7728 11.2737 18.8616L11.5324 19.3317C12.4482 21.0113 13.5868 23.1008 17.7435 27.2569C21.9003 31.4129 23.9891 32.5516 25.668 33.4673L26.1387 33.7267C27.2274 34.3371 28.5994 34.054 29.3575 33.0625L31.892 29.8043C32.2467 29.3524 32.8887 29.2484 33.3681 29.5649L42.0707 35.3691C42.5593 35.6934 42.7058 36.345 42.4031 36.8473Z" stroke="#56CCF2" stroke-width="0.38" mask="url(#path-2-outside-1)"/>
  <mask id="path-3-outside-2" maskUnits="userSpaceOnUse" x="23.6489" y="5.7373" width="16" height="16" fill="black">
    <rect fill="white" x="23.6489" y="5.7373" width="16" height="16"/>
    <path d="M25.3654 8.17037C32.09 8.17784 37.5394 13.6274 37.547 20.3519C37.547 20.7477 37.8677 21.0685 38.2635 21.0685C38.6592 21.0685 38.98 20.7477 38.98 20.3519C38.9717 12.8362 32.8811 6.74553 25.3654 6.7373C24.9696 6.7373 24.6489 7.05808 24.6489 7.45384C24.6489 7.8496 24.9696 8.17037 25.3654 8.17037Z"/>
  </mask>
  <path d="M25.3654 8.17037C32.09 8.17784 37.5394 13.6274 37.547 20.3519C37.547 20.7477 37.8677 21.0685 38.2635 21.0685C38.6592 21.0685 38.98 20.7477 38.98 20.3519C38.9717 12.8362 32.8811 6.74553 25.3654 6.7373C24.9696 6.7373 24.6489 7.05808 24.6489 7.45384C24.6489 7.8496 24.9696 8.17037 25.3654 8.17037Z" fill="#0095DA"/>
  <path d="M25.3654 8.17037C32.09 8.17784 37.5394 13.6274 37.547 20.3519C37.547 20.7477 37.8677 21.0685 38.2635 21.0685C38.6592 21.0685 38.98 20.7477 38.98 20.3519C38.9717 12.8362 32.8811 6.74553 25.3654 6.7373C24.9696 6.7373 24.6489 7.05808 24.6489 7.45384C24.6489 7.8496 24.9696 8.17037 25.3654 8.17037Z" stroke="#56CCF2" stroke-width="0.38" mask="url(#path-3-outside-2)"/>
  <mask id="path-4-outside-3" maskUnits="userSpaceOnUse" x="23.6489" y="10.0371" width="12" height="12" fill="black">
    <rect fill="white" x="23.6489" y="10.0371" width="12" height="12"/>
    <path d="M25.3654 12.4702C29.7165 12.4753 33.2425 16.0013 33.2476 20.3524C33.2476 20.7481 33.5685 21.0689 33.9641 21.0689C34.3599 21.0689 34.6807 20.7481 34.6807 20.3524C34.6747 15.2101 30.5076 11.043 25.3654 11.0371C24.9696 11.0371 24.6489 11.3579 24.6489 11.7536C24.6489 12.1494 24.9696 12.4702 25.3654 12.4702Z"/>
  </mask>
  <path d="M25.3654 12.4702C29.7165 12.4753 33.2425 16.0013 33.2476 20.3524C33.2476 20.7481 33.5685 21.0689 33.9641 21.0689C34.3599 21.0689 34.6807 20.7481 34.6807 20.3524C34.6747 15.2101 30.5076 11.043 25.3654 11.0371C24.9696 11.0371 24.6489 11.3579 24.6489 11.7536C24.6489 12.1494 24.9696 12.4702 25.3654 12.4702Z" fill="#0095DA"/>
  <path d="M25.3654 12.4702C29.7165 12.4753 33.2425 16.0013 33.2476 20.3524C33.2476 20.7481 33.5685 21.0689 33.9641 21.0689C34.3599 21.0689 34.6807 20.7481 34.6807 20.3524C34.6747 15.2101 30.5076 11.043 25.3654 11.0371C24.9696 11.0371 24.6489 11.3579 24.6489 11.7536C24.6489 12.1494 24.9696 12.4702 25.3654 12.4702Z" stroke="#56CCF2" stroke-width="0.38" mask="url(#path-4-outside-3)"/>
  <mask id="path-5-outside-4" maskUnits="userSpaceOnUse" x="23.6489" y="14.3364" width="7" height="7" fill="black">
    <rect fill="white" x="23.6489" y="14.3364" width="7" height="7"/>
    <path d="M25.3654 16.7695C27.3431 16.7718 28.9458 18.3745 28.9482 20.3523C28.9482 20.7481 29.2691 21.0689 29.6648 21.0689C30.0604 21.0689 30.3813 20.7481 30.3813 20.3523C30.3781 17.5834 28.1343 15.3395 25.3654 15.3364C24.9696 15.3364 24.6489 15.6572 24.6489 16.053C24.6489 16.4487 24.9696 16.7695 25.3654 16.7695Z"/>
  </mask>
  <path d="M25.3654 16.7695C27.3431 16.7718 28.9458 18.3745 28.9482 20.3523C28.9482 20.7481 29.2691 21.0689 29.6648 21.0689C30.0604 21.0689 30.3813 20.7481 30.3813 20.3523C30.3781 17.5834 28.1343 15.3395 25.3654 15.3364C24.9696 15.3364 24.6489 15.6572 24.6489 16.053C24.6489 16.4487 24.9696 16.7695 25.3654 16.7695Z" fill="#0095DA"/>
  <path d="M25.3654 16.7695C27.3431 16.7718 28.9458 18.3745 28.9482 20.3523C28.9482 20.7481 29.2691 21.0689 29.6648 21.0689C30.0604 21.0689 30.3813 20.7481 30.3813 20.3523C30.3781 17.5834 28.1343 15.3395 25.3654 15.3364C24.9696 15.3364 24.6489 15.6572 24.6489 16.053C24.6489 16.4487 24.9696 16.7695 25.3654 16.7695Z" stroke="#56CCF2" stroke-width="0.38" mask="url(#path-5-outside-4)"/>
</svg>
