<svg width="22" height="21" viewBox="0 0 22 21" fill="none" xmlns="http://www.w3.org/2000/svg">
  <g opacity="0.8">
    <g clip-path="url(#clip0)">
      <path d="M4.99899 6.98633H0.272461V20.535H4.99899V6.98633Z" fill="white"/>
      <path d="M20.5107 8.22391C19.5178 7.18937 18.2046 6.672 16.572 6.672C15.9704 6.672 15.4236 6.74263 14.9317 6.88399C14.4401 7.02526 14.0248 7.22346 13.6857 7.4787C13.3468 7.73393 13.0769 7.97088 12.8766 8.18953C12.686 8.39721 12.4997 8.63914 12.3179 8.91281V6.98623H7.60547L7.61992 7.64257C7.6296 8.0802 7.63437 9.42908 7.63437 11.6894C7.63437 13.9499 7.62483 16.8983 7.60567 20.5351H12.3179V12.9744C12.3179 12.5097 12.3701 12.1406 12.4754 11.8669C12.676 11.4019 12.9789 11.0125 13.3849 10.6982C13.7909 10.3835 14.2945 10.2262 14.8962 10.2262C15.7172 10.2262 16.3213 10.4974 16.7081 11.0397C17.0947 11.582 17.2881 12.3317 17.2881 13.2887V20.5347H22.0003V12.7696C22 10.7733 21.5038 9.25812 20.5107 8.22391Z" fill="white"/>
      <path d="M2.66401 0.464844C1.87158 0.464844 1.22949 0.686032 0.737604 1.12798C0.245768 1.57002 0 2.12809 0 2.80272C0 3.46792 0.238694 4.02407 0.716133 4.47057C1.19342 4.91711 1.82372 5.1405 2.60667 5.1405H2.63532C3.43749 5.1405 4.08449 4.9173 4.57618 4.47057C5.06786 4.02407 5.30891 3.46811 5.29943 2.80272C5.2899 2.12814 5.04624 1.57002 4.56895 1.12798C4.09171 0.685841 3.4565 0.464844 2.66401 0.464844Z" fill="white"/>
    </g>
  </g>
  <defs>
    <clipPath id="clip0">
      <rect width="22" height="21" fill="white"/>
    </clipPath>
  </defs>
</svg>
