<svg width="108" height="108" viewBox="0 0 108 108" xmlns="http://www.w3.org/2000/svg">
  <circle cx="54" cy="54" r="54"/>
  <path d="M36.5546 57.4181C34.3454 55.209 28.0864 54.3499 27.35 54.2272C26.9818 54.2272 26.6136 54.3499 26.3682 54.5954C26.1228 54.8408 26 55.209 26 55.5772C26.1228 56.3136 26.9818 62.5726 29.0682 64.7818C30.1728 65.8863 31.4 66.4999 32.75 66.4999C34.1 66.4999 35.45 65.8863 36.4318 64.9045C38.8864 62.5727 38.8864 59.7499 36.5546 57.4181ZM34.8364 63.1863C33.7318 64.2909 32.1364 64.4136 30.9091 63.1863C29.9273 62.2045 29.191 59.3817 28.7001 57.0499C31.0319 57.4181 33.8547 58.2772 34.8365 59.259C36.1864 60.4863 36.1864 61.8363 34.8364 63.1863Z" />
  <path d="M62.45 26.3682C62.0818 26.1228 61.7136 26 61.3455 26C60.6091 26.1228 54.35 26.9818 52.1409 29.0682C51.0364 30.1728 50.4228 31.4 50.4228 32.75C50.4228 34.1 51.0364 35.45 52.0182 36.4318C53.2455 37.659 54.4728 38.2728 55.8228 38.2728C57.1728 38.2728 58.4 37.6591 59.6274 36.5546C61.8364 34.3455 62.6956 28.0864 62.8183 27.35C62.8182 26.9818 62.6954 26.6136 62.45 26.3682ZM57.7864 34.8364C56.4364 36.1864 55.0864 36.1864 53.7364 34.8364C53.1228 34.2228 52.8773 33.4864 52.8773 32.8728C52.8773 32.1364 53.2454 31.5228 53.8591 30.9091C54.8409 29.9273 57.6636 29.191 59.9954 28.7001C59.6273 31.0318 58.7682 33.8546 57.7864 34.8364Z" />
  <path d="M78.7728 40.7273H77.5455V35.8182C77.5455 35.0818 77.0546 34.591 76.3183 34.591C75.582 34.591 75.0911 35.0819 75.0911 35.8182V40.7273H67.7275V35.8182C67.7275 35.0818 67.2365 34.591 66.5002 34.591C65.7639 34.591 65.273 35.0819 65.273 35.8182V40.7273H64.0458C63.3094 40.7273 62.8185 41.2182 62.8185 41.9545V44.4091C62.8185 45.1454 63.3095 45.6363 64.0458 45.6363C64.782 45.6363 65.273 45.1453 65.273 44.4091V43.1818H77.5458V45.6364H68.9548C68.2184 45.6364 67.7276 46.1274 67.7276 46.8636C67.7276 47.5999 68.2185 48.0909 68.9548 48.0909H76.3184V49.3181C76.3184 52.0181 74.1094 54.2271 71.4094 54.2271C68.7094 54.2271 66.5003 52.0181 66.5003 49.3181C66.5003 48.5817 66.0094 48.0909 65.2731 48.0909C64.5368 48.0909 64.0459 48.5818 64.0459 49.3181C64.0459 52.9999 66.7459 55.9453 70.1822 56.5591V73.8636C70.1822 75.95 68.5868 77.5454 66.5004 77.5454C64.414 77.5454 62.8186 75.95 62.8186 73.8636V66.5C62.8186 63.0636 60.1186 60.3636 56.6822 60.3636C53.2459 60.3636 50.5459 63.0636 50.5459 66.5V73.8636C50.5459 75.95 48.9504 77.5454 46.864 77.5454C44.7777 77.5454 43.1822 75.95 43.1822 73.8636V41.9546C43.1822 41.2182 42.6913 40.7274 41.955 40.7274C41.2186 40.7274 40.7278 41.2183 40.7278 41.9546V50.4228C39.6232 50.1774 38.6414 49.6864 37.7823 48.95C36.4323 47.7228 35.8187 45.7591 35.8187 43.4273C35.8187 39.7454 39.6233 32.9954 41.9551 29.4363C44.2869 32.9953 48.0915 39.7453 48.0915 43.4273C48.0915 46.0045 47.3551 47.9682 46.0051 49.1954C45.5142 49.6864 45.3915 50.4227 45.8823 50.9136C46.3732 51.4046 47.1096 51.5273 47.6005 51.0364C49.5642 49.3182 50.4233 46.741 50.4233 43.4274C50.4233 37.4137 43.1823 26.9819 42.8143 26.491C42.3233 25.8774 41.2188 25.8774 40.8506 26.491C40.6052 26.9819 33.3643 37.4137 33.3643 43.4274C33.3643 47.3546 34.837 49.5637 36.187 50.791C37.4143 52.0182 39.0098 52.7546 40.728 53V73.8636C40.728 77.3 43.428 80 46.8644 80C50.3 80 53 77.3 53 73.8636V66.5C53 64.4136 54.5954 62.8182 56.6818 62.8182C58.7682 62.8182 60.3636 64.4136 60.3636 66.5V73.8636C60.3636 77.3 63.0636 80 66.5 80C69.9364 80 72.6364 77.3 72.6364 73.8636V56.5591C76.0728 55.9454 78.7728 53 78.7728 49.3181V48.0909C79.5092 48.0909 80 47.5999 80 46.8636V41.9546C80 41.2182 79.5091 40.7273 78.7728 40.7273Z" />
</svg>
