<svg viewBox="0 0 108 108" height="108" width="108">
  <circle r="54" cy="54" cx="54" />
  <g transform="translate(26.499969,26.999712)">
    <path d="m 22.9288,3.6106 c -10.6275,0 -19.2427,8.4586 -19.2427,18.8928 0,10.4343 8.6152,18.8929 19.2427,18.8929 10.6275,0 19.2427,-8.4586 19.2427,-18.8929 C 42.1599,12.0739 33.5515,3.62195 22.9288,3.6106 Z m 0,1.79931 c 5.6601,0.00439 10.9641,2.71281 14.2176,7.26029 l -2.2908,2.2491 c -0.5575,-0.3312 -1.1957,-0.5084 -1.8473,-0.5128 -2.0243,0 -3.6653,1.6112 -3.6653,3.5986 0.0032,0.6405 0.1827,1.2681 0.5196,1.8164 l -6.0001,5.891 c -1.1361,-0.6801 -2.5639,-0.6801 -3.7001,0 L 15.995,21.6209 c 0.3369,-0.5484 0.5164,-1.176 0.5196,-1.8164 0.0025,-1.9836 -1.6331,-3.5935 -3.6534,-3.596 -1.6708,-0.002 -3.1306,1.1076 -3.54707,2.6963 H 5.91458 C 7.64952,11.0387 14.7314,5.42172 22.9288,5.40991 Z M 34.8409,18.0051 c 0,0.9938 -0.8204,1.7994 -1.8326,1.7994 -1.0122,0 -1.8326,-0.8056 -1.8326,-1.7994 0,-0.9938 0.8204,-1.7993 1.8326,-1.7993 1.0122,0 1.8326,0.8055 1.8326,1.7993 z M 23.8451,28.801 c 0,0.9938 -0.8204,1.7994 -1.8326,1.7994 -1.0122,0 -1.8327,-0.8056 -1.8327,-1.7994 0,-0.9937 0.8205,-1.7993 1.8327,-1.7993 1.0122,0 1.8326,0.8056 1.8326,1.7993 z m -9.1632,-8.9965 c 0,0.9937 -0.8204,1.7993 -1.8326,1.7993 -1.0122,0 -1.8327,-0.8056 -1.8327,-1.7993 0,-0.9938 0.8205,-1.7994 1.8327,-1.7994 1.0122,0 1.8326,0.8056 1.8326,1.7994 z M 31.388,37.4497 c -2.5877,1.4107 -5.4993,2.1497 -8.4592,2.1471 C 13.32,39.6032 5.52526,31.9608 5.51873,22.5267 5.51828,21.9179 5.55103,21.3094 5.61678,20.704 h 3.69735 c 0.41658,1.584 1.86897,2.6928 3.53517,2.699 0.6523,-0.0032 1.2915,-0.1794 1.85,-0.5101 l 4.1675,4.0916 c -0.3369,0.5484 -0.5164,1.176 -0.5196,1.8164 0,1.9875 1.641,3.5987 3.6653,3.5987 2.0242,0 3.6653,-1.6112 3.6653,-3.5987 -0.0033,-0.6404 -0.1827,-1.268 -0.5196,-1.8164 l 6.0001,-5.8909 c 0.5585,0.3307 1.1977,0.5069 1.85,0.5101 2.0243,0 3.6653,-1.6112 3.6653,-3.5987 -0.0032,-0.6404 -0.1827,-1.268 -0.5196,-1.8164 l 1.9976,-1.9603 c 4.6635,8.2462 1.6353,18.6428 -6.7636,23.2214 z" />
    <path d="M 45.8368,9.00876 C 47.503,9.00257 48.9554,7.89385 49.372,6.30978 H 55 V 4.51046 H 49.372 C 48.9554,2.92639 47.503,1.81767 45.8368,1.81148 c -2.0242,0 -3.6652,1.61118 -3.6652,3.59864 0.0032,0.64044 0.1826,1.26807 0.5195,1.81641 l -1.61,1.5807 C 33.3778,-1.04639 18.997,-2.90307 8.96094,4.66025 -1.07516,12.2236 -2.96621,26.3429 4.73717,36.1966 12.0086,45.4976 25.3377,47.7538 35.3615,41.3803 l 2.7654,2.7152 1.2957,1.2721 7.3764,7.2422 c 1.876,1.842 4.9175,1.842 6.7936,0 1.876,-1.8419 1.876,-4.8281 0,-6.67 l -7.3764,-7.2423 -1.2957,-1.2721 -2.7654,-2.7152 c 4.909,-7.424 4.909,-16.989 0,-24.4131 l 1.8326,-1.79935 c 0.5582,0.33085 1.1972,0.50741 1.8491,0.51101 z m 0,-5.39796 c 1.0122,0 1.8327,0.80553 1.8327,1.79932 0,0.99379 -0.8205,1.79932 -1.8327,1.79932 -1.0122,0 -1.8326,-0.80553 -1.8326,-1.79932 0,-0.99379 0.8206,-1.79932 1.8326,-1.79932 z m 6.4601,43.6011 c 1.1736,1.1263 1.195,2.9736 0.0477,4.1258 -1.1472,1.1522 -3.0286,1.1733 -4.2022,0.0469 -0.0161,-0.0154 -0.0319,-0.031 -0.0478,-0.0469 l -7.3763,-7.2422 4.2022,-4.1259 z m -8.6721,-8.5144 -4.2022,4.1258 -2.5364,-2.4902 c 0.1292,-0.0972 0.2502,-0.2042 0.3776,-0.3041 0.1273,-0.0999 0.2748,-0.2195 0.4114,-0.332 0.2007,-0.1655 0.3986,-0.3328 0.5928,-0.5047 0.0999,-0.09 0.1952,-0.1799 0.2933,-0.2699 0.3756,-0.3455 0.7394,-0.7026 1.0913,-1.0715 0.0916,-0.0962 0.1833,-0.1898 0.2749,-0.2879 0.175,-0.1907 0.3454,-0.385 0.514,-0.582 0.1149,-0.1332 0.2276,-0.2678 0.3382,-0.404 0.1008,-0.1241 0.2098,-0.2429 0.3088,-0.3698 z m -3.5534,-4.1789 c -0.2887,0.3958 -0.5865,0.7836 -0.9008,1.1569 -0.0916,0.1089 -0.1897,0.2142 -0.284,0.3212 -0.2804,0.3203 -0.57,0.631 -0.8687,0.9321 -0.1301,0.1319 -0.2624,0.2618 -0.3968,0.3895 -0.3055,0.2933 -0.6218,0.5776 -0.9493,0.8529 -0.109,0.09 -0.2162,0.188 -0.3271,0.2789 -0.3803,0.3086 -0.7752,0.601 -1.1784,0.8844 C 25.6806,45.988 12.4971,43.8319 5.72038,34.5186 -1.05638,25.2053 1.1397,12.2616 10.6254,5.60805 c 9.4858,-6.65354 22.6692,-4.49751 29.446,4.81585 5.2437,7.2065 5.2437,16.8882 0,24.0947 z" />
  </g>
</svg>
