<svg width="22" height="19" viewBox="0 0 22 19" fill="none" xmlns="http://www.w3.org/2000/svg">
  <g opacity="0.8">
    <path d="M19.7227 5.28125C19.7513 5.39583 19.7656 5.58203 19.7656 5.83984C19.7656 7.35807 19.4792 8.8763 18.9062 10.3945C18.3333 11.8841 17.5169 13.2591 16.457 14.5195C15.4258 15.7513 14.0794 16.7539 12.418 17.5273C10.7565 18.3008 8.92318 18.6875 6.91797 18.6875C4.39714 18.6875 2.09115 18.0143 0 16.668C0.315104 16.6966 0.673177 16.7109 1.07422 16.7109C3.16536 16.7109 5.04167 16.0664 6.70312 14.7773C5.70052 14.7773 4.8125 14.4909 4.03906 13.918C3.29427 13.3164 2.77865 12.5716 2.49219 11.6836C2.77865 11.7122 3.05078 11.7266 3.30859 11.7266C3.70964 11.7266 4.11068 11.6836 4.51172 11.5977C3.82422 11.4544 3.20833 11.168 2.66406 10.7383C2.11979 10.3086 1.6901 9.79297 1.375 9.19141C1.0599 8.5612 0.902344 7.88802 0.902344 7.17188V7.08594C1.53255 7.45833 2.20573 7.65885 2.92188 7.6875C1.57552 6.77083 0.902344 5.51042 0.902344 3.90625C0.902344 3.10417 1.11719 2.34505 1.54688 1.62891C2.66406 3.03255 4.02474 4.14974 5.62891 4.98047C7.26172 5.8112 8.99479 6.26953 10.8281 6.35547C10.7708 6.01172 10.7422 5.66797 10.7422 5.32422C10.7422 4.09245 11.1719 3.03255 12.0312 2.14453C12.9193 1.25651 13.9792 0.8125 15.2109 0.8125C16.5286 0.8125 17.6315 1.28516 18.5195 2.23047C19.5508 2.02995 20.5104 1.67188 21.3984 1.15625C21.0547 2.21615 20.3958 3.04688 19.4219 3.64844C20.2812 3.53385 21.1406 3.29036 22 2.91797C21.3698 3.83464 20.6107 4.6224 19.7227 5.28125Z" fill="white"/>
    <path d="M19.7227 5.28125C19.7513 5.39583 19.7656 5.58203 19.7656 5.83984C19.7656 7.35807 19.4792 8.8763 18.9062 10.3945C18.3333 11.8841 17.5169 13.2591 16.457 14.5195C15.4258 15.7513 14.0794 16.7539 12.418 17.5273C10.7565 18.3008 8.92318 18.6875 6.91797 18.6875C4.39714 18.6875 2.09115 18.0143 0 16.668C0.315104 16.6966 0.673177 16.7109 1.07422 16.7109C3.16536 16.7109 5.04167 16.0664 6.70312 14.7773C5.70052 14.7773 4.8125 14.4909 4.03906 13.918C3.29427 13.3164 2.77865 12.5716 2.49219 11.6836C2.77865 11.7122 3.05078 11.7266 3.30859 11.7266C3.70964 11.7266 4.11068 11.6836 4.51172 11.5977C3.82422 11.4544 3.20833 11.168 2.66406 10.7383C2.11979 10.3086 1.6901 9.79297 1.375 9.19141C1.0599 8.5612 0.902344 7.88802 0.902344 7.17188V7.08594C1.53255 7.45833 2.20573 7.65885 2.92188 7.6875C1.57552 6.77083 0.902344 5.51042 0.902344 3.90625C0.902344 3.10417 1.11719 2.34505 1.54688 1.62891C2.66406 3.03255 4.02474 4.14974 5.62891 4.98047C7.26172 5.8112 8.99479 6.26953 10.8281 6.35547C10.7708 6.01172 10.7422 5.66797 10.7422 5.32422C10.7422 4.09245 11.1719 3.03255 12.0312 2.14453C12.9193 1.25651 13.9792 0.8125 15.2109 0.8125C16.5286 0.8125 17.6315 1.28516 18.5195 2.23047C19.5508 2.02995 20.5104 1.67188 21.3984 1.15625C21.0547 2.21615 20.3958 3.04688 19.4219 3.64844C20.2812 3.53385 21.1406 3.29036 22 2.91797C21.3698 3.83464 20.6107 4.6224 19.7227 5.28125Z" fill="white"/>
  </g>
</svg>
