<svg width="21" height="20" viewBox="0 0 21 20" fill="none" xmlns="http://www.w3.org/2000/svg">
  <g opacity="0.8">
    <path d="M7.01953 6.26953C7.99349 5.29557 9.16797 4.80859 10.543 4.80859C11.918 4.80859 13.0781 5.29557 14.0234 6.26953C14.9974 7.21484 15.4844 8.375 15.4844 9.75C15.4844 11.125 14.9974 12.2995 14.0234 13.2734C13.0781 14.2188 11.918 14.6914 10.543 14.6914C9.16797 14.6914 7.99349 14.2188 7.01953 13.2734C6.07422 12.2995 5.60156 11.125 5.60156 9.75C5.60156 8.375 6.07422 7.21484 7.01953 6.26953ZM8.26562 12.0273C8.89583 12.6576 9.65495 12.9727 10.543 12.9727C11.431 12.9727 12.1901 12.6576 12.8203 12.0273C13.4505 11.3971 13.7656 10.638 13.7656 9.75C13.7656 8.86198 13.4505 8.10286 12.8203 7.47266C12.1901 6.84245 11.431 6.52734 10.543 6.52734C9.65495 6.52734 8.89583 6.84245 8.26562 7.47266C7.63542 8.10286 7.32031 8.86198 7.32031 9.75C7.32031 10.638 7.63542 11.3971 8.26562 12.0273ZM16.4727 3.82031C16.7018 4.02083 16.8164 4.27865 16.8164 4.59375C16.8164 4.90885 16.7018 5.18099 16.4727 5.41016C16.2721 5.63932 16.0143 5.75391 15.6992 5.75391C15.3841 5.75391 15.112 5.63932 14.8828 5.41016C14.6536 5.18099 14.5391 4.90885 14.5391 4.59375C14.5391 4.27865 14.6536 4.02083 14.8828 3.82031C15.112 3.59115 15.3841 3.47656 15.6992 3.47656C16.0143 3.47656 16.2721 3.59115 16.4727 3.82031ZM20.125 5.79688C20.1536 6.57031 20.168 7.88802 20.168 9.75C20.168 11.612 20.1536 12.9297 20.125 13.7031C20.0391 15.4505 19.5091 16.8112 18.5352 17.7852C17.5898 18.7305 16.2435 19.2318 14.4961 19.2891C13.7227 19.3464 12.4049 19.375 10.543 19.375C8.68099 19.375 7.36328 19.3464 6.58984 19.2891C4.84245 19.2031 3.49609 18.6875 2.55078 17.7422C2.17839 17.3984 1.8776 16.9974 1.64844 16.5391C1.41927 16.0807 1.2474 15.6367 1.13281 15.207C1.04688 14.7773 1.00391 14.276 1.00391 13.7031C0.946615 12.9297 0.917969 11.612 0.917969 9.75C0.917969 7.88802 0.946615 6.55599 1.00391 5.75391C1.08984 4.03516 1.60547 2.70312 2.55078 1.75781C3.49609 0.783854 4.84245 0.253906 6.58984 0.167969C7.36328 0.139323 8.68099 0.125 10.543 0.125C12.4049 0.125 13.7227 0.139323 14.4961 0.167969C16.2435 0.253906 17.5898 0.783854 18.5352 1.75781C19.5091 2.70312 20.0391 4.04948 20.125 5.79688ZM18.0625 15.4219C18.1484 15.1927 18.2201 14.9062 18.2773 14.5625C18.3346 14.1901 18.3776 13.7604 18.4062 13.2734C18.4349 12.7578 18.4492 12.3424 18.4492 12.0273C18.4492 11.7122 18.4492 11.2682 18.4492 10.6953C18.4492 10.1224 18.4492 9.80729 18.4492 9.75C18.4492 9.66406 18.4492 9.34896 18.4492 8.80469C18.4492 8.23177 18.4492 7.78776 18.4492 7.47266C18.4492 7.15755 18.4349 6.75651 18.4062 6.26953C18.3776 5.75391 18.3346 5.32422 18.2773 4.98047C18.2201 4.60807 18.1484 4.30729 18.0625 4.07812C17.7188 3.1901 17.1029 2.57422 16.2148 2.23047C15.9857 2.14453 15.6849 2.07292 15.3125 2.01562C14.9688 1.95833 14.5391 1.91536 14.0234 1.88672C13.5365 1.85807 13.1354 1.84375 12.8203 1.84375C12.5339 1.84375 12.0898 1.84375 11.4883 1.84375C10.9154 1.84375 10.6003 1.84375 10.543 1.84375C10.4857 1.84375 10.1706 1.84375 9.59766 1.84375C9.02474 1.84375 8.58073 1.84375 8.26562 1.84375C7.95052 1.84375 7.53516 1.85807 7.01953 1.88672C6.53255 1.91536 6.10286 1.95833 5.73047 2.01562C5.38672 2.07292 5.10026 2.14453 4.87109 2.23047C3.98307 2.57422 3.36719 3.1901 3.02344 4.07812C2.9375 4.30729 2.86589 4.60807 2.80859 4.98047C2.7513 5.32422 2.70833 5.75391 2.67969 6.26953C2.65104 6.75651 2.63672 7.15755 2.63672 7.47266C2.63672 7.75911 2.63672 8.20312 2.63672 8.80469C2.63672 9.3776 2.63672 9.69271 2.63672 9.75C2.63672 9.86458 2.63672 10.1367 2.63672 10.5664C2.63672 10.9674 2.63672 11.3112 2.63672 11.5977C2.63672 11.8555 2.63672 12.1992 2.63672 12.6289C2.66536 13.0586 2.69401 13.431 2.72266 13.7461C2.7513 14.0326 2.79427 14.3333 2.85156 14.6484C2.90885 14.9635 2.96615 15.2214 3.02344 15.4219C3.39583 16.3099 4.01172 16.9258 4.87109 17.2695C5.10026 17.3555 5.38672 17.4271 5.73047 17.4844C6.10286 17.5417 6.53255 17.5846 7.01953 17.6133C7.53516 17.6419 7.9362 17.6562 8.22266 17.6562C8.53776 17.6562 8.98177 17.6562 9.55469 17.6562C10.1562 17.6562 10.4857 17.6562 10.543 17.6562C10.6289 17.6562 10.944 17.6562 11.4883 17.6562C12.0612 17.6562 12.5052 17.6562 12.8203 17.6562C13.1354 17.6562 13.5365 17.6419 14.0234 17.6133C14.5391 17.5846 14.9688 17.5417 15.3125 17.4844C15.6849 17.4271 15.9857 17.3555 16.2148 17.2695C17.1029 16.8971 17.7188 16.2812 18.0625 15.4219Z" fill="white"/>
    <path d="M7.01953 6.26953C7.99349 5.29557 9.16797 4.80859 10.543 4.80859C11.918 4.80859 13.0781 5.29557 14.0234 6.26953C14.9974 7.21484 15.4844 8.375 15.4844 9.75C15.4844 11.125 14.9974 12.2995 14.0234 13.2734C13.0781 14.2188 11.918 14.6914 10.543 14.6914C9.16797 14.6914 7.99349 14.2188 7.01953 13.2734C6.07422 12.2995 5.60156 11.125 5.60156 9.75C5.60156 8.375 6.07422 7.21484 7.01953 6.26953ZM8.26562 12.0273C8.89583 12.6576 9.65495 12.9727 10.543 12.9727C11.431 12.9727 12.1901 12.6576 12.8203 12.0273C13.4505 11.3971 13.7656 10.638 13.7656 9.75C13.7656 8.86198 13.4505 8.10286 12.8203 7.47266C12.1901 6.84245 11.431 6.52734 10.543 6.52734C9.65495 6.52734 8.89583 6.84245 8.26562 7.47266C7.63542 8.10286 7.32031 8.86198 7.32031 9.75C7.32031 10.638 7.63542 11.3971 8.26562 12.0273ZM16.4727 3.82031C16.7018 4.02083 16.8164 4.27865 16.8164 4.59375C16.8164 4.90885 16.7018 5.18099 16.4727 5.41016C16.2721 5.63932 16.0143 5.75391 15.6992 5.75391C15.3841 5.75391 15.112 5.63932 14.8828 5.41016C14.6536 5.18099 14.5391 4.90885 14.5391 4.59375C14.5391 4.27865 14.6536 4.02083 14.8828 3.82031C15.112 3.59115 15.3841 3.47656 15.6992 3.47656C16.0143 3.47656 16.2721 3.59115 16.4727 3.82031ZM20.125 5.79688C20.1536 6.57031 20.168 7.88802 20.168 9.75C20.168 11.612 20.1536 12.9297 20.125 13.7031C20.0391 15.4505 19.5091 16.8112 18.5352 17.7852C17.5898 18.7305 16.2435 19.2318 14.4961 19.2891C13.7227 19.3464 12.4049 19.375 10.543 19.375C8.68099 19.375 7.36328 19.3464 6.58984 19.2891C4.84245 19.2031 3.49609 18.6875 2.55078 17.7422C2.17839 17.3984 1.8776 16.9974 1.64844 16.5391C1.41927 16.0807 1.2474 15.6367 1.13281 15.207C1.04688 14.7773 1.00391 14.276 1.00391 13.7031C0.946615 12.9297 0.917969 11.612 0.917969 9.75C0.917969 7.88802 0.946615 6.55599 1.00391 5.75391C1.08984 4.03516 1.60547 2.70312 2.55078 1.75781C3.49609 0.783854 4.84245 0.253906 6.58984 0.167969C7.36328 0.139323 8.68099 0.125 10.543 0.125C12.4049 0.125 13.7227 0.139323 14.4961 0.167969C16.2435 0.253906 17.5898 0.783854 18.5352 1.75781C19.5091 2.70312 20.0391 4.04948 20.125 5.79688ZM18.0625 15.4219C18.1484 15.1927 18.2201 14.9062 18.2773 14.5625C18.3346 14.1901 18.3776 13.7604 18.4062 13.2734C18.4349 12.7578 18.4492 12.3424 18.4492 12.0273C18.4492 11.7122 18.4492 11.2682 18.4492 10.6953C18.4492 10.1224 18.4492 9.80729 18.4492 9.75C18.4492 9.66406 18.4492 9.34896 18.4492 8.80469C18.4492 8.23177 18.4492 7.78776 18.4492 7.47266C18.4492 7.15755 18.4349 6.75651 18.4062 6.26953C18.3776 5.75391 18.3346 5.32422 18.2773 4.98047C18.2201 4.60807 18.1484 4.30729 18.0625 4.07812C17.7188 3.1901 17.1029 2.57422 16.2148 2.23047C15.9857 2.14453 15.6849 2.07292 15.3125 2.01562C14.9688 1.95833 14.5391 1.91536 14.0234 1.88672C13.5365 1.85807 13.1354 1.84375 12.8203 1.84375C12.5339 1.84375 12.0898 1.84375 11.4883 1.84375C10.9154 1.84375 10.6003 1.84375 10.543 1.84375C10.4857 1.84375 10.1706 1.84375 9.59766 1.84375C9.02474 1.84375 8.58073 1.84375 8.26562 1.84375C7.95052 1.84375 7.53516 1.85807 7.01953 1.88672C6.53255 1.91536 6.10286 1.95833 5.73047 2.01562C5.38672 2.07292 5.10026 2.14453 4.87109 2.23047C3.98307 2.57422 3.36719 3.1901 3.02344 4.07812C2.9375 4.30729 2.86589 4.60807 2.80859 4.98047C2.7513 5.32422 2.70833 5.75391 2.67969 6.26953C2.65104 6.75651 2.63672 7.15755 2.63672 7.47266C2.63672 7.75911 2.63672 8.20312 2.63672 8.80469C2.63672 9.3776 2.63672 9.69271 2.63672 9.75C2.63672 9.86458 2.63672 10.1367 2.63672 10.5664C2.63672 10.9674 2.63672 11.3112 2.63672 11.5977C2.63672 11.8555 2.63672 12.1992 2.63672 12.6289C2.66536 13.0586 2.69401 13.431 2.72266 13.7461C2.7513 14.0326 2.79427 14.3333 2.85156 14.6484C2.90885 14.9635 2.96615 15.2214 3.02344 15.4219C3.39583 16.3099 4.01172 16.9258 4.87109 17.2695C5.10026 17.3555 5.38672 17.4271 5.73047 17.4844C6.10286 17.5417 6.53255 17.5846 7.01953 17.6133C7.53516 17.6419 7.9362 17.6562 8.22266 17.6562C8.53776 17.6562 8.98177 17.6562 9.55469 17.6562C10.1562 17.6562 10.4857 17.6562 10.543 17.6562C10.6289 17.6562 10.944 17.6562 11.4883 17.6562C12.0612 17.6562 12.5052 17.6562 12.8203 17.6562C13.1354 17.6562 13.5365 17.6419 14.0234 17.6133C14.5391 17.5846 14.9688 17.5417 15.3125 17.4844C15.6849 17.4271 15.9857 17.3555 16.2148 17.2695C17.1029 16.8971 17.7188 16.2812 18.0625 15.4219Z" fill="white"/>
  </g>
</svg>
