<svg width="108" height="108" viewBox="0 0 108 108">
  <circle cx="54" cy="54" r="54" />
  <g transform="translate(-97.813859,-1.6758044)">
    <g transform="translate(125.31388,28.675805)">
      <path d="M 52.3187,3.67333 C 52.1853,3.51207 51.9945,3.41134 51.7883,3.39341 L 40.2538,2.38967 40.0447,0.696052 C 39.9909,0.26036 39.5997,-0.0484521 39.1731,0.00628616 L 28.473,1.37696 C 28.4309,1.36578 28.3877,1.35734 28.3428,1.35344 L 13.6357,0.0734697 C 13.2122,0.035501 12.8278,0.367306 12.7917,0.797934 L 12.5725,3.41356 1.1807,4.87282 C 0.759189,4.92682 0.450816,5.33109 0.503713,5.76087 L 6.3186,52.8851 C 6.345,53.1001 6.29976,53.3066 6.38599,53.5145 6.50689,53.8057 6.79467,54 7.10511,54 H 45.3965 c 0.4311,0 0.7804,-0.3558 0.7804,-0.7951 v -1.0356 l 1.5114,0.1315 c 0.4235,0.0375 0.8079,-0.2936 0.844,-0.7244 L 52.4993,4.25351 C 52.517,4.04331 52.4521,3.83469 52.3187,3.67333 Z M 6.32471,40.186 2.14982,6.35139 6.32471,5.81666 Z m 7.95579,-38.46036 6.83,0.59431 -6.9544,0.8909 z m 24.313,-0.0423 0.3988,3.23125 H 13.3669 Z M 47.0436,50.6487 46.1769,50.5733 V 27.3369 c 0,-0.4391 -0.3493,-0.7951 -0.7804,-0.7951 -0.4312,0 -0.7804,0.3558 -0.7804,0.7951 V 52.4097 H 7.88551 V 6.50485 H 44.6162 V 23.6264 c 0,0.4393 0.3492,0.7952 0.7804,0.7952 0.4311,0 0.7804,-0.3559 0.7804,-0.7952 V 5.70972 c 0,-0.43917 -0.3493,-0.79513 -0.7804,-0.79513 H 40.5654 L 40.4529,4.00302 50.8778,4.91026 Z" />
      <path d="m 41.2344,9.15527 h -4.1621 c -0.261,0 -0.5047,0.13279 -0.6493,0.35406 l -1.7664,2.69957 c -1.9012,-1.3876 -4.229,-2.2056 -6.7409,-2.2056 -0.4311,0 -0.7804,0.3559 -0.7804,0.7952 v 11.0257 c 0,0.4391 0.3492,0.7951 0.7804,0.7951 h 10.8215 c 0.4312,0 0.7804,-0.3558 0.7804,-0.7951 0,-3.3853 -1.4043,-6.4422 -3.6499,-8.5992 l 1.6224,-2.4795 h 3.7444 c 0.4311,0 0.7804,-0.3558 0.7804,-0.7951 0,-0.43927 -0.3494,-0.79513 -0.7805,-0.79513 z M 37.9268,21.029 h -9.2307 v -9.4048 c 1.8926,0.1489 3.6386,0.8366 5.0936,1.9097 l -0.6964,1.0643 c -0.2175,0.3322 -0.1537,0.7924 0.1467,1.0494 0.3518,0.301 0.8974,0.2216 1.1519,-0.1673 l 0.596,-0.9108 c 1.6592,1.6793 2.748,3.9431 2.9389,6.4595 z" />
      <path d="m 41.2344,35.4472 h -7.0592 l -1.2439,-2.0277 c 2.015,-2.1273 3.2565,-5.0201 3.2565,-8.2028 0,-0.4393 -0.3492,-0.7951 -0.7804,-0.7951 H 25.3663 V 14.191 c 0,-0.4392 -0.3494,-0.7951 -0.7804,-0.7951 -6.3973,0 -11.6019,5.3028 -11.6019,11.8208 0,6.518 5.2046,11.8208 11.6019,11.8208 2.7041,0 5.1949,-0.9475 7.1699,-2.5336 l 1.325,2.16 c 0.1427,0.2324 0.3928,0.3736 0.6618,0.3736 h 7.4918 c 0.4311,0 0.7804,-0.3558 0.7804,-0.7951 0,-0.4393 -0.3493,-0.7952 -0.7804,-0.7952 z m -10.992,-6.4113 c -0.2283,-0.3726 -0.71,-0.4856 -1.0754,-0.2529 -0.3655,0.2327 -0.4767,0.7233 -0.2482,1.0957 l 2.0044,3.2677 c -1.7296,1.4376 -3.9362,2.301 -6.3372,2.301 -5.5366,0 -10.0411,-4.5895 -10.0411,-10.2306 0,-5.3736 4.0873,-9.7929 9.2607,-10.2 v 10.2 c 0,0.4392 0.3494,0.7951 0.7804,0.7951 h 10.0111 c -0.1743,2.2994 -1.0981,4.388 -2.5218,6.0122 z" />
      <path d="m 17.9265,39.6879 h -6.6593 c -0.431,0 -0.7804,0.3558 -0.7804,0.7951 0,0.4393 0.3493,0.7951 0.7804,0.7951 h 6.6593 c 0.4311,0 0.7804,-0.3558 0.7804,-0.7951 0,-0.4393 -0.3493,-0.7951 -0.7804,-0.7951 z" />
      <path d="m 27.9157,39.6879 h -6.6594 c -0.431,0 -0.7804,0.3558 -0.7804,0.7951 0,0.4393 0.3494,0.7951 0.7804,0.7951 h 6.6594 c 0.431,0 0.7804,-0.3558 0.7804,-0.7951 0,-0.4393 -0.3494,-0.7951 -0.7804,-0.7951 z" />
      <path d="M 22.0887,43.9286 H 11.2672 c -0.431,0 -0.7804,0.3558 -0.7804,0.7951 0,0.4393 0.3493,0.7951 0.7804,0.7951 h 10.8215 c 0.431,0 0.7804,-0.3558 0.7804,-0.7951 0,-0.4393 -0.3495,-0.7951 -0.7804,-0.7951 z" />
      <path d="m 27.9157,43.9286 h -2.4973 c -0.431,0 -0.7804,0.3558 -0.7804,0.7951 0,0.4393 0.3493,0.7951 0.7804,0.7951 h 2.4973 c 0.431,0 0.7804,-0.3558 0.7804,-0.7951 -10e-5,-0.4393 -0.3494,-0.7951 -0.7804,-0.7951 z" />
      <path d="m 14.5968,48.1692 h -3.3296 c -0.431,0 -0.7804,0.3558 -0.7804,0.7951 0,0.4393 0.3493,0.7951 0.7804,0.7951 h 3.3296 c 0.4311,0 0.7804,-0.3558 0.7804,-0.7951 0,-0.4393 -0.3493,-0.7951 -0.7804,-0.7951 z" />
      <path d="m 27.9157,48.1692 h -9.9891 c -0.4309,0 -0.7804,0.3558 -0.7804,0.7951 0,0.4393 0.3494,0.7951 0.7804,0.7951 h 9.9891 c 0.431,0 0.7804,-0.3558 0.7804,-0.7951 0,-0.4393 -0.3494,-0.7951 -0.7804,-0.7951 z" />
    </g>
  </g>
</svg>
